<mxfile host="app.diagrams.net" agent="Mozilla/5.0 (Windows NT 10.0; Win64; x64) AppleWebKit/537.36 (KHTML, like Gecko) Chrome/133.0.0.0 Safari/537.36 OPR/118.0.0.0" version="27.0.5">
  <diagram name="Page-1" id="bpOh3gMDQPdO4UPneNWq">
    <mxGraphModel dx="1629" dy="899" grid="1" gridSize="10" guides="1" tooltips="1" connect="1" arrows="1" fold="1" page="1" pageScale="1" pageWidth="850" pageHeight="1100" math="0" shadow="0">
      <root>
        <mxCell id="0" />
        <mxCell id="1" parent="0" />
        <mxCell id="SeupjBQ_K4HJZtTK7bJI-1" value="ADMIN" style="shape=umlActor;verticalLabelPosition=bottom;verticalAlign=top;html=1;outlineConnect=0;fillColor=#d5e8d4;strokeColor=#82b366;strokeWidth=2;" parent="1" vertex="1">
          <mxGeometry x="80" y="240" width="40" height="80" as="geometry" />
        </mxCell>
        <mxCell id="SeupjBQ_K4HJZtTK7bJI-2" value="PET OWNER" style="shape=umlActor;verticalLabelPosition=bottom;verticalAlign=top;html=1;outlineConnect=0;strokeColor=#b85450;strokeWidth=2;fillColor=#f8cecc;" parent="1" vertex="1">
          <mxGeometry x="80" y="560" width="40" height="80" as="geometry" />
        </mxCell>
        <mxCell id="SeupjBQ_K4HJZtTK7bJI-3" value="VETERINARY" style="shape=umlActor;verticalLabelPosition=bottom;verticalAlign=top;html=1;outlineConnect=0;fillColor=#ffe6cc;strokeColor=#d79b00;strokeWidth=2;" parent="1" vertex="1">
          <mxGeometry x="770" y="450" width="40" height="80" as="geometry" />
        </mxCell>
        <mxCell id="fIfqYlYrHAXsZ6UQBjre-1" value="" style="group" vertex="1" connectable="0" parent="1">
          <mxGeometry x="415" y="240" width="130" height="50" as="geometry" />
        </mxCell>
        <mxCell id="U2mdNWW6zJkxc7_gEZoD-3" value="" style="ellipse;whiteSpace=wrap;html=1;fillColor=#f8cecc;strokeColor=#b85450;" parent="fIfqYlYrHAXsZ6UQBjre-1" vertex="1">
          <mxGeometry width="130" height="50" as="geometry" />
        </mxCell>
        <mxCell id="U2mdNWW6zJkxc7_gEZoD-4" value="PROFILING" style="text;html=1;align=center;verticalAlign=middle;whiteSpace=wrap;rounded=0;" parent="fIfqYlYrHAXsZ6UQBjre-1" vertex="1">
          <mxGeometry x="5" y="10" width="120" height="30" as="geometry" />
        </mxCell>
        <mxCell id="fIfqYlYrHAXsZ6UQBjre-3" value="" style="group" vertex="1" connectable="0" parent="1">
          <mxGeometry x="415" y="140" width="130" height="50" as="geometry" />
        </mxCell>
        <mxCell id="SeupjBQ_K4HJZtTK7bJI-7" value="" style="ellipse;whiteSpace=wrap;html=1;fillColor=#f8cecc;strokeColor=#b85450;" parent="fIfqYlYrHAXsZ6UQBjre-3" vertex="1">
          <mxGeometry width="130" height="50" as="geometry" />
        </mxCell>
        <mxCell id="SeupjBQ_K4HJZtTK7bJI-12" value="REGISTRATION" style="text;html=1;align=center;verticalAlign=middle;whiteSpace=wrap;rounded=0;" parent="fIfqYlYrHAXsZ6UQBjre-3" vertex="1">
          <mxGeometry x="5" y="10" width="120" height="30" as="geometry" />
        </mxCell>
        <mxCell id="fIfqYlYrHAXsZ6UQBjre-4" value="" style="group" vertex="1" connectable="0" parent="1">
          <mxGeometry x="415" y="350" width="130" height="50" as="geometry" />
        </mxCell>
        <mxCell id="SeupjBQ_K4HJZtTK7bJI-8" value="" style="ellipse;whiteSpace=wrap;html=1;fillColor=#f8cecc;strokeColor=#b85450;" parent="fIfqYlYrHAXsZ6UQBjre-4" vertex="1">
          <mxGeometry width="130" height="50" as="geometry" />
        </mxCell>
        <mxCell id="SeupjBQ_K4HJZtTK7bJI-13" value="LOGIN" style="text;html=1;align=center;verticalAlign=middle;whiteSpace=wrap;rounded=0;" parent="fIfqYlYrHAXsZ6UQBjre-4" vertex="1">
          <mxGeometry x="5" y="10" width="120" height="30" as="geometry" />
        </mxCell>
        <mxCell id="fIfqYlYrHAXsZ6UQBjre-6" value="" style="group" vertex="1" connectable="0" parent="1">
          <mxGeometry x="415" y="660" width="130" height="50" as="geometry" />
        </mxCell>
        <mxCell id="SeupjBQ_K4HJZtTK7bJI-9" value="" style="ellipse;whiteSpace=wrap;html=1;fillColor=#f8cecc;strokeColor=#b85450;" parent="fIfqYlYrHAXsZ6UQBjre-6" vertex="1">
          <mxGeometry width="130" height="50" as="geometry" />
        </mxCell>
        <mxCell id="SeupjBQ_K4HJZtTK7bJI-14" value="MESSAGE" style="text;html=1;align=center;verticalAlign=middle;whiteSpace=wrap;rounded=0;" parent="fIfqYlYrHAXsZ6UQBjre-6" vertex="1">
          <mxGeometry x="5" y="10" width="120" height="30" as="geometry" />
        </mxCell>
        <mxCell id="fIfqYlYrHAXsZ6UQBjre-7" value="" style="group" vertex="1" connectable="0" parent="1">
          <mxGeometry x="415" y="460" width="130" height="50" as="geometry" />
        </mxCell>
        <mxCell id="SeupjBQ_K4HJZtTK7bJI-10" value="" style="ellipse;whiteSpace=wrap;html=1;fillColor=#f8cecc;strokeColor=#b85450;" parent="fIfqYlYrHAXsZ6UQBjre-7" vertex="1">
          <mxGeometry width="130" height="50" as="geometry" />
        </mxCell>
        <mxCell id="SeupjBQ_K4HJZtTK7bJI-15" value="MAPPING" style="text;html=1;align=center;verticalAlign=middle;whiteSpace=wrap;rounded=0;" parent="fIfqYlYrHAXsZ6UQBjre-7" vertex="1">
          <mxGeometry x="5" y="10" width="120" height="30" as="geometry" />
        </mxCell>
        <mxCell id="fIfqYlYrHAXsZ6UQBjre-8" value="" style="group" vertex="1" connectable="0" parent="1">
          <mxGeometry x="415" y="560" width="130" height="50" as="geometry" />
        </mxCell>
        <mxCell id="SeupjBQ_K4HJZtTK7bJI-11" value="" style="ellipse;whiteSpace=wrap;html=1;fillColor=#f8cecc;strokeColor=#b85450;" parent="fIfqYlYrHAXsZ6UQBjre-8" vertex="1">
          <mxGeometry width="130" height="50" as="geometry" />
        </mxCell>
        <mxCell id="SeupjBQ_K4HJZtTK7bJI-16" value="APPOINTMENT" style="text;html=1;align=center;verticalAlign=middle;whiteSpace=wrap;rounded=0;" parent="fIfqYlYrHAXsZ6UQBjre-8" vertex="1">
          <mxGeometry x="5" y="10" width="120" height="30" as="geometry" />
        </mxCell>
        <mxCell id="fIfqYlYrHAXsZ6UQBjre-9" value="" style="endArrow=none;dashed=1;html=1;rounded=0;entryX=0.5;entryY=0;entryDx=0;entryDy=0;exitX=0.5;exitY=1;exitDx=0;exitDy=0;" edge="1" parent="1" source="SeupjBQ_K4HJZtTK7bJI-7" target="U2mdNWW6zJkxc7_gEZoD-3">
          <mxGeometry width="50" height="50" relative="1" as="geometry">
            <mxPoint x="480" y="460" as="sourcePoint" />
            <mxPoint x="480" y="490" as="targetPoint" />
          </mxGeometry>
        </mxCell>
        <mxCell id="fIfqYlYrHAXsZ6UQBjre-11" value="" style="group" vertex="1" connectable="0" parent="1">
          <mxGeometry x="415" y="760" width="130" height="50" as="geometry" />
        </mxCell>
        <mxCell id="fIfqYlYrHAXsZ6UQBjre-12" value="" style="ellipse;whiteSpace=wrap;html=1;fillColor=#f8cecc;strokeColor=#b85450;" vertex="1" parent="fIfqYlYrHAXsZ6UQBjre-11">
          <mxGeometry width="130" height="50" as="geometry" />
        </mxCell>
        <mxCell id="fIfqYlYrHAXsZ6UQBjre-13" value="SEND MESSAGE /&amp;nbsp;&lt;br&gt;RECIEVE MESSAGE" style="text;html=1;align=center;verticalAlign=middle;whiteSpace=wrap;rounded=0;" vertex="1" parent="fIfqYlYrHAXsZ6UQBjre-11">
          <mxGeometry x="5" y="10" width="120" height="30" as="geometry" />
        </mxCell>
        <mxCell id="fIfqYlYrHAXsZ6UQBjre-15" value="" style="endArrow=classic;html=1;rounded=0;entryX=0;entryY=0.5;entryDx=0;entryDy=0;strokeColor=#FF3333;strokeWidth=3;" edge="1" parent="1" source="SeupjBQ_K4HJZtTK7bJI-29" target="U2mdNWW6zJkxc7_gEZoD-4">
          <mxGeometry width="50" height="50" relative="1" as="geometry">
            <mxPoint x="130" y="560" as="sourcePoint" />
            <mxPoint x="580" y="740" as="targetPoint" />
          </mxGeometry>
        </mxCell>
        <mxCell id="fIfqYlYrHAXsZ6UQBjre-16" value="" style="endArrow=classic;html=1;rounded=0;entryX=0;entryY=0.5;entryDx=0;entryDy=0;strokeColor=#FF3333;strokeWidth=3;" edge="1" parent="1" source="SeupjBQ_K4HJZtTK7bJI-28" target="SeupjBQ_K4HJZtTK7bJI-13">
          <mxGeometry width="50" height="50" relative="1" as="geometry">
            <mxPoint x="130" y="570" as="sourcePoint" />
            <mxPoint x="450" y="575" as="targetPoint" />
          </mxGeometry>
        </mxCell>
        <mxCell id="fIfqYlYrHAXsZ6UQBjre-19" value="" style="endArrow=classic;html=1;rounded=0;entryX=0;entryY=0.5;entryDx=0;entryDy=0;strokeColor=#FF3333;strokeWidth=3;" edge="1" parent="1" source="SeupjBQ_K4HJZtTK7bJI-30" target="SeupjBQ_K4HJZtTK7bJI-15">
          <mxGeometry width="50" height="50" relative="1" as="geometry">
            <mxPoint x="130" y="580" as="sourcePoint" />
            <mxPoint x="425" y="680" as="targetPoint" />
          </mxGeometry>
        </mxCell>
        <mxCell id="fIfqYlYrHAXsZ6UQBjre-20" value="" style="endArrow=classic;html=1;rounded=0;entryX=0;entryY=0.5;entryDx=0;entryDy=0;strokeColor=#FF3333;strokeWidth=3;" edge="1" parent="1" source="SeupjBQ_K4HJZtTK7bJI-31" target="SeupjBQ_K4HJZtTK7bJI-16">
          <mxGeometry width="50" height="50" relative="1" as="geometry">
            <mxPoint x="130" y="590" as="sourcePoint" />
            <mxPoint x="425" y="782.5" as="targetPoint" />
          </mxGeometry>
        </mxCell>
        <mxCell id="fIfqYlYrHAXsZ6UQBjre-22" value="" style="endArrow=classic;startArrow=classic;html=1;rounded=0;entryX=0;entryY=0.5;entryDx=0;entryDy=0;strokeWidth=3;strokeColor=#FF3333;" edge="1" parent="1" target="fIfqYlYrHAXsZ6UQBjre-13">
          <mxGeometry width="50" height="50" relative="1" as="geometry">
            <mxPoint x="140" y="660" as="sourcePoint" />
            <mxPoint x="580" y="740" as="targetPoint" />
            <Array as="points" />
          </mxGeometry>
        </mxCell>
        <mxCell id="fIfqYlYrHAXsZ6UQBjre-23" value="" style="group" vertex="1" connectable="0" parent="1">
          <mxGeometry x="415" y="840" width="130" height="50" as="geometry" />
        </mxCell>
        <mxCell id="fIfqYlYrHAXsZ6UQBjre-24" value="" style="ellipse;whiteSpace=wrap;html=1;fillColor=#f8cecc;strokeColor=#b85450;" vertex="1" parent="fIfqYlYrHAXsZ6UQBjre-23">
          <mxGeometry width="130" height="50" as="geometry" />
        </mxCell>
        <mxCell id="fIfqYlYrHAXsZ6UQBjre-25" value="HEALTH RECORD" style="text;html=1;align=center;verticalAlign=middle;whiteSpace=wrap;rounded=0;" vertex="1" parent="fIfqYlYrHAXsZ6UQBjre-23">
          <mxGeometry x="5" y="10" width="120" height="30" as="geometry" />
        </mxCell>
        <mxCell id="fIfqYlYrHAXsZ6UQBjre-26" value="" style="endArrow=none;dashed=1;html=1;rounded=0;exitX=0.5;exitY=0;exitDx=0;exitDy=0;entryX=0.5;entryY=1;entryDx=0;entryDy=0;" edge="1" parent="1" source="fIfqYlYrHAXsZ6UQBjre-12" target="SeupjBQ_K4HJZtTK7bJI-9">
          <mxGeometry width="50" height="50" relative="1" as="geometry">
            <mxPoint x="530" y="690" as="sourcePoint" />
            <mxPoint x="580" y="640" as="targetPoint" />
          </mxGeometry>
        </mxCell>
        <mxCell id="fIfqYlYrHAXsZ6UQBjre-27" value="" style="endArrow=classic;startArrow=classic;html=1;rounded=0;entryX=1;entryY=0.5;entryDx=0;entryDy=0;strokeWidth=3;strokeColor=#FF9933;" edge="1" parent="1" target="fIfqYlYrHAXsZ6UQBjre-13">
          <mxGeometry width="50" height="50" relative="1" as="geometry">
            <mxPoint x="760" y="560" as="sourcePoint" />
            <mxPoint x="950" y="775" as="targetPoint" />
            <Array as="points" />
          </mxGeometry>
        </mxCell>
        <mxCell id="fIfqYlYrHAXsZ6UQBjre-28" value="" style="endArrow=classic;html=1;rounded=0;entryX=1;entryY=0.5;entryDx=0;entryDy=0;strokeWidth=3;strokeColor=#FF9933;" edge="1" parent="1" source="SeupjBQ_K4HJZtTK7bJI-40" target="U2mdNWW6zJkxc7_gEZoD-4">
          <mxGeometry width="50" height="50" relative="1" as="geometry">
            <mxPoint x="760" y="460" as="sourcePoint" />
            <mxPoint x="580" y="440" as="targetPoint" />
          </mxGeometry>
        </mxCell>
        <mxCell id="fIfqYlYrHAXsZ6UQBjre-30" value="" style="endArrow=classic;html=1;rounded=0;entryX=1;entryY=0.5;entryDx=0;entryDy=0;strokeWidth=3;strokeColor=#FF9933;" edge="1" parent="1" source="SeupjBQ_K4HJZtTK7bJI-39" target="SeupjBQ_K4HJZtTK7bJI-13">
          <mxGeometry width="50" height="50" relative="1" as="geometry">
            <mxPoint x="760" y="470" as="sourcePoint" />
            <mxPoint x="530" y="315" as="targetPoint" />
          </mxGeometry>
        </mxCell>
        <mxCell id="fIfqYlYrHAXsZ6UQBjre-31" value="" style="endArrow=classic;html=1;rounded=0;entryX=1;entryY=0.5;entryDx=0;entryDy=0;strokeWidth=3;strokeColor=#FF9933;" edge="1" parent="1" source="SeupjBQ_K4HJZtTK7bJI-41" target="SeupjBQ_K4HJZtTK7bJI-15">
          <mxGeometry width="50" height="50" relative="1" as="geometry">
            <mxPoint x="760" y="480" as="sourcePoint" />
            <mxPoint x="520" y="435" as="targetPoint" />
          </mxGeometry>
        </mxCell>
        <mxCell id="fIfqYlYrHAXsZ6UQBjre-33" value="" style="endArrow=classic;html=1;rounded=0;entryX=1;entryY=0.5;entryDx=0;entryDy=0;strokeWidth=3;strokeColor=#FF9933;" edge="1" parent="1" source="SeupjBQ_K4HJZtTK7bJI-42" target="SeupjBQ_K4HJZtTK7bJI-16">
          <mxGeometry width="50" height="50" relative="1" as="geometry">
            <mxPoint x="760" y="490" as="sourcePoint" />
            <mxPoint x="530" y="550" as="targetPoint" />
          </mxGeometry>
        </mxCell>
        <mxCell id="fIfqYlYrHAXsZ6UQBjre-34" value="" style="endArrow=classic;html=1;rounded=0;entryX=0;entryY=0.25;entryDx=0;entryDy=0;strokeWidth=3;strokeColor=#00CC00;" edge="1" parent="1" source="SeupjBQ_K4HJZtTK7bJI-38" target="U2mdNWW6zJkxc7_gEZoD-4">
          <mxGeometry width="50" height="50" relative="1" as="geometry">
            <mxPoint x="130" y="270" as="sourcePoint" />
            <mxPoint x="580" y="440" as="targetPoint" />
          </mxGeometry>
        </mxCell>
        <mxCell id="fIfqYlYrHAXsZ6UQBjre-35" value="" style="endArrow=none;html=1;rounded=0;entryX=0;entryY=0.5;entryDx=0;entryDy=0;strokeWidth=3;strokeColor=#00CC00;startFill=0;" edge="1" parent="1" target="SeupjBQ_K4HJZtTK7bJI-38">
          <mxGeometry width="50" height="50" relative="1" as="geometry">
            <mxPoint x="130" y="270" as="sourcePoint" />
            <mxPoint x="420" y="258" as="targetPoint" />
          </mxGeometry>
        </mxCell>
        <mxCell id="SeupjBQ_K4HJZtTK7bJI-38" value="MANAGE" style="text;html=1;align=center;verticalAlign=middle;whiteSpace=wrap;rounded=0;rotation=0;fillColor=#d5e8d4;strokeColor=#82b366;" parent="1" vertex="1">
          <mxGeometry x="200" y="250" width="120" height="30" as="geometry" />
        </mxCell>
        <mxCell id="fIfqYlYrHAXsZ6UQBjre-37" value="" style="endArrow=none;html=1;rounded=0;entryX=1;entryY=0.5;entryDx=0;entryDy=0;strokeWidth=3;strokeColor=#FF9933;startFill=0;" edge="1" parent="1" target="SeupjBQ_K4HJZtTK7bJI-39">
          <mxGeometry width="50" height="50" relative="1" as="geometry">
            <mxPoint x="760" y="470" as="sourcePoint" />
            <mxPoint x="540" y="375" as="targetPoint" />
          </mxGeometry>
        </mxCell>
        <mxCell id="SeupjBQ_K4HJZtTK7bJI-39" value="LOGIN" style="text;html=1;align=center;verticalAlign=middle;whiteSpace=wrap;rounded=0;rotation=20;fillColor=#ffe6cc;strokeColor=#d79b00;" parent="1" vertex="1">
          <mxGeometry x="590" y="410" width="120" height="30" as="geometry" />
        </mxCell>
        <mxCell id="fIfqYlYrHAXsZ6UQBjre-38" value="" style="endArrow=none;html=1;rounded=0;entryX=1;entryY=0.5;entryDx=0;entryDy=0;strokeWidth=3;strokeColor=#FF9933;startFill=0;" edge="1" parent="1" target="SeupjBQ_K4HJZtTK7bJI-42">
          <mxGeometry width="50" height="50" relative="1" as="geometry">
            <mxPoint x="760" y="490" as="sourcePoint" />
            <mxPoint x="540" y="585" as="targetPoint" />
          </mxGeometry>
        </mxCell>
        <mxCell id="SeupjBQ_K4HJZtTK7bJI-42" value="VIEW &amp;amp; CONFIRM" style="text;html=1;align=center;verticalAlign=middle;whiteSpace=wrap;rounded=0;rotation=-25;fillColor=#ffe6cc;strokeColor=#d79b00;" parent="1" vertex="1">
          <mxGeometry x="590" y="530" width="120" height="30" as="geometry" />
        </mxCell>
        <mxCell id="fIfqYlYrHAXsZ6UQBjre-39" value="" style="endArrow=none;html=1;rounded=0;entryX=1;entryY=0.5;entryDx=0;entryDy=0;strokeWidth=3;strokeColor=#FF9933;startFill=0;" edge="1" parent="1" target="SeupjBQ_K4HJZtTK7bJI-41">
          <mxGeometry width="50" height="50" relative="1" as="geometry">
            <mxPoint x="760" y="480" as="sourcePoint" />
            <mxPoint x="540" y="485" as="targetPoint" />
          </mxGeometry>
        </mxCell>
        <mxCell id="SeupjBQ_K4HJZtTK7bJI-41" value="ADD LOCATION" style="text;html=1;align=center;verticalAlign=middle;whiteSpace=wrap;rounded=0;rotation=0;fillColor=#ffe6cc;strokeColor=#d79b00;" parent="1" vertex="1">
          <mxGeometry x="580" y="470" width="120" height="30" as="geometry" />
        </mxCell>
        <mxCell id="fIfqYlYrHAXsZ6UQBjre-40" value="" style="endArrow=none;html=1;rounded=0;entryX=1;entryY=0.5;entryDx=0;entryDy=0;strokeWidth=3;strokeColor=#FF9933;fillColor=#ffe6cc;startFill=0;" edge="1" parent="1" target="SeupjBQ_K4HJZtTK7bJI-40">
          <mxGeometry width="50" height="50" relative="1" as="geometry">
            <mxPoint x="760" y="460" as="sourcePoint" />
            <mxPoint x="540" y="265" as="targetPoint" />
          </mxGeometry>
        </mxCell>
        <mxCell id="SeupjBQ_K4HJZtTK7bJI-40" value="UPDATE&lt;span style=&quot;color: rgba(0, 0, 0, 0); font-family: monospace; font-size: 0px; text-align: start; text-wrap: nowrap;&quot;&gt;%3CmxGraphModel%3E%3Croot%3E%3CmxCell%20id%3D%220%22%2F%3E%3CmxCell%20id%3D%221%22%20parent%3D%220%22%2F%3E%3CmxCell%20id%3D%222%22%20value%3D%22REGISTER%22%20style%3D%22text%3Bhtml%3D1%3Balign%3Dcenter%3BverticalAlign%3Dmiddle%3BwhiteSpace%3Dwrap%3Brounded%3D0%3Brotation%3D-30%3B%22%20vertex%3D%221%22%20parent%3D%221%22%3E%3CmxGeometry%20x%3D%22270%22%20y%3D%22520%22%20width%3D%22120%22%20height%3D%2230%22%20as%3D%22geometry%22%2F%3E%3C%2FmxCell%3E%3C%2Froot%3E%3C%2FmxGraphModel%3E&lt;/span&gt;&lt;span style=&quot;color: rgba(0, 0, 0, 0); font-family: monospace; font-size: 0px; text-align: start; text-wrap: nowrap;&quot;&gt;%3CmxGraphModel%3E%3Croot%3E%3CmxCell%20id%3D%220%22%2F%3E%3CmxCell%20id%3D%221%22%20parent%3D%220%22%2F%3E%3CmxCell%20id%3D%222%22%20value%3D%22REGISTER%22%20style%3D%22text%3Bhtml%3D1%3Balign%3Dcenter%3BverticalAlign%3Dmiddle%3BwhiteSpace%3Dwrap%3Brounded%3D0%3Brotation%3D-30%3B%22%20vertex%3D%221%22%20parent%3D%221%22%3E%3CmxGeometry%20x%3D%22270%22%20y%3D%22520%22%20width%3D%22120%22%20height%3D%2230%22%20as%3D%22geometry%22%2F%3E%3C%2FmxCell%3E%3C%2Froot%3E%3C%2FmxGraphModel%3E&lt;/span&gt;" style="text;html=1;align=center;verticalAlign=middle;whiteSpace=wrap;rounded=0;rotation=45;fillColor=#ffe6cc;strokeColor=#d79b00;" parent="1" vertex="1">
          <mxGeometry x="590" y="340" width="120" height="30" as="geometry" />
        </mxCell>
        <mxCell id="fIfqYlYrHAXsZ6UQBjre-42" value="" style="endArrow=classic;html=1;rounded=0;entryX=0;entryY=0.5;entryDx=0;entryDy=0;strokeWidth=3;strokeColor=#FF3333;exitX=1;exitY=0.5;exitDx=0;exitDy=0;" edge="1" parent="1" source="fIfqYlYrHAXsZ6UQBjre-48" target="fIfqYlYrHAXsZ6UQBjre-25">
          <mxGeometry width="50" height="50" relative="1" as="geometry">
            <mxPoint x="100" y="670" as="sourcePoint" />
            <mxPoint x="580" y="540" as="targetPoint" />
            <Array as="points" />
          </mxGeometry>
        </mxCell>
        <mxCell id="fIfqYlYrHAXsZ6UQBjre-43" value="" style="endArrow=none;html=1;rounded=0;entryX=1;entryY=0.5;entryDx=0;entryDy=0;strokeWidth=3;strokeColor=#FF9933;exitX=0;exitY=0.5;exitDx=0;exitDy=0;startFill=0;" edge="1" parent="1" source="fIfqYlYrHAXsZ6UQBjre-50" target="fIfqYlYrHAXsZ6UQBjre-25">
          <mxGeometry width="50" height="50" relative="1" as="geometry">
            <mxPoint x="790" y="560" as="sourcePoint" />
            <mxPoint x="580" y="540" as="targetPoint" />
            <Array as="points" />
          </mxGeometry>
        </mxCell>
        <mxCell id="fIfqYlYrHAXsZ6UQBjre-44" value="" style="endArrow=none;html=1;rounded=0;entryX=0;entryY=0.5;entryDx=0;entryDy=0;strokeColor=#FF3333;strokeWidth=3;startFill=0;fillColor=#f8cecc;" edge="1" parent="1" target="SeupjBQ_K4HJZtTK7bJI-28">
          <mxGeometry width="50" height="50" relative="1" as="geometry">
            <mxPoint x="130" y="570" as="sourcePoint" />
            <mxPoint x="420" y="375" as="targetPoint" />
          </mxGeometry>
        </mxCell>
        <mxCell id="SeupjBQ_K4HJZtTK7bJI-28" value="LOGIN" style="text;html=1;align=center;verticalAlign=middle;whiteSpace=wrap;rounded=0;rotation=-29;fillColor=#f8cecc;strokeColor=#b85450;" parent="1" vertex="1">
          <mxGeometry x="240" y="440" width="120" height="30" as="geometry" />
        </mxCell>
        <mxCell id="fIfqYlYrHAXsZ6UQBjre-45" value="" style="endArrow=none;html=1;rounded=0;entryX=0;entryY=0.5;entryDx=0;entryDy=0;strokeColor=#FF3333;strokeWidth=3;startFill=0;" edge="1" parent="1" target="SeupjBQ_K4HJZtTK7bJI-30">
          <mxGeometry width="50" height="50" relative="1" as="geometry">
            <mxPoint x="130" y="580" as="sourcePoint" />
            <mxPoint x="420" y="485" as="targetPoint" />
          </mxGeometry>
        </mxCell>
        <mxCell id="SeupjBQ_K4HJZtTK7bJI-30" value="&amp;nbsp;PIN, SEARCH &amp;amp; VIEW" style="text;html=1;align=center;verticalAlign=middle;whiteSpace=wrap;rounded=0;rotation=-15;fillColor=#f8cecc;strokeColor=#b85450;" parent="1" vertex="1">
          <mxGeometry x="230" y="510" width="120" height="30" as="geometry" />
        </mxCell>
        <mxCell id="fIfqYlYrHAXsZ6UQBjre-46" value="" style="endArrow=none;html=1;rounded=0;entryX=0;entryY=0.5;entryDx=0;entryDy=0;strokeColor=#FF3333;strokeWidth=3;startFill=0;" edge="1" parent="1" target="SeupjBQ_K4HJZtTK7bJI-31">
          <mxGeometry width="50" height="50" relative="1" as="geometry">
            <mxPoint x="130" y="590" as="sourcePoint" />
            <mxPoint x="420" y="585" as="targetPoint" />
          </mxGeometry>
        </mxCell>
        <mxCell id="SeupjBQ_K4HJZtTK7bJI-31" value="ADD" style="text;html=1;align=center;verticalAlign=middle;whiteSpace=wrap;rounded=0;rotation=0;fillColor=#f8cecc;strokeColor=#b85450;" parent="1" vertex="1">
          <mxGeometry x="230" y="570" width="120" height="30" as="geometry" />
        </mxCell>
        <mxCell id="fIfqYlYrHAXsZ6UQBjre-47" value="" style="endArrow=none;html=1;rounded=0;entryX=0;entryY=0.5;entryDx=0;entryDy=0;strokeColor=#FF3333;strokeWidth=3;startFill=0;" edge="1" parent="1" target="SeupjBQ_K4HJZtTK7bJI-29">
          <mxGeometry width="50" height="50" relative="1" as="geometry">
            <mxPoint x="130" y="560" as="sourcePoint" />
            <mxPoint x="420" y="265" as="targetPoint" />
          </mxGeometry>
        </mxCell>
        <mxCell id="SeupjBQ_K4HJZtTK7bJI-29" value="UPDATE&lt;span style=&quot;color: rgba(0, 0, 0, 0); font-family: monospace; font-size: 0px; text-align: start; text-wrap: nowrap;&quot;&gt;%3CmxGraphModel%3E%3Croot%3E%3CmxCell%20id%3D%220%22%2F%3E%3CmxCell%20id%3D%221%22%20parent%3D%220%22%2F%3E%3CmxCell%20id%3D%222%22%20value%3D%22REGISTER%22%20style%3D%22text%3Bhtml%3D1%3Balign%3Dcenter%3BverticalAlign%3Dmiddle%3BwhiteSpace%3Dwrap%3Brounded%3D0%3Brotation%3D-30%3B%22%20vertex%3D%221%22%20parent%3D%221%22%3E%3CmxGeometry%20x%3D%22270%22%20y%3D%22520%22%20width%3D%22120%22%20height%3D%2230%22%20as%3D%22geometry%22%2F%3E%3C%2FmxCell%3E%3C%2Froot%3E%3C%2FmxGraphModel%3E&lt;/span&gt;&lt;span style=&quot;color: rgba(0, 0, 0, 0); font-family: monospace; font-size: 0px; text-align: start; text-wrap: nowrap;&quot;&gt;%3CmxGraphModel%3E%3Croot%3E%3CmxCell%20id%3D%220%22%2F%3E%3CmxCell%20id%3D%221%22%20parent%3D%220%22%2F%3E%3CmxCell%20id%3D%222%22%20value%3D%22REGISTER%22%20style%3D%22text%3Bhtml%3D1%3Balign%3Dcenter%3BverticalAlign%3Dmiddle%3BwhiteSpace%3Dwrap%3Brounded%3D0%3Brotation%3D-30%3B%22%20vertex%3D%221%22%20parent%3D%221%22%3E%3CmxGeometry%20x%3D%22270%22%20y%3D%22520%22%20width%3D%22120%22%20height%3D%2230%22%20as%3D%22geometry%22%2F%3E%3C%2FmxCell%3E%3C%2Froot%3E%3C%2FmxGraphModel%3E&lt;/span&gt;" style="text;html=1;align=center;verticalAlign=middle;whiteSpace=wrap;rounded=0;rotation=-45;fillColor=#f8cecc;strokeColor=#b85450;" parent="1" vertex="1">
          <mxGeometry x="240" y="360" width="120" height="30" as="geometry" />
        </mxCell>
        <mxCell id="fIfqYlYrHAXsZ6UQBjre-49" value="" style="endArrow=none;html=1;rounded=0;entryX=0;entryY=0.5;entryDx=0;entryDy=0;strokeWidth=3;strokeColor=#FF3333;startFill=0;" edge="1" parent="1" target="fIfqYlYrHAXsZ6UQBjre-48">
          <mxGeometry width="50" height="50" relative="1" as="geometry">
            <mxPoint x="100" y="670" as="sourcePoint" />
            <mxPoint x="420" y="865" as="targetPoint" />
            <Array as="points">
              <mxPoint x="100" y="865" />
            </Array>
          </mxGeometry>
        </mxCell>
        <mxCell id="fIfqYlYrHAXsZ6UQBjre-48" value="RECORD THEIR PET&#39;s" style="text;html=1;align=center;verticalAlign=middle;whiteSpace=wrap;rounded=0;fillColor=#f8cecc;strokeColor=#b85450;" vertex="1" parent="1">
          <mxGeometry x="200" y="850" width="90" height="30" as="geometry" />
        </mxCell>
        <mxCell id="fIfqYlYrHAXsZ6UQBjre-51" value="" style="endArrow=none;html=1;rounded=0;strokeWidth=3;strokeColor=#FF9933;startFill=1;entryX=1;entryY=0.5;entryDx=0;entryDy=0;startArrow=classic;" edge="1" parent="1" target="fIfqYlYrHAXsZ6UQBjre-50">
          <mxGeometry width="50" height="50" relative="1" as="geometry">
            <mxPoint x="790" y="570" as="sourcePoint" />
            <mxPoint x="810" y="860" as="targetPoint" />
            <Array as="points">
              <mxPoint x="790" y="865" />
            </Array>
          </mxGeometry>
        </mxCell>
        <mxCell id="fIfqYlYrHAXsZ6UQBjre-50" value="RECEIVE RECORD OF PET&#39;s" style="text;html=1;align=center;verticalAlign=middle;whiteSpace=wrap;rounded=0;fillColor=#ffe6cc;strokeColor=#d79b00;" vertex="1" parent="1">
          <mxGeometry x="630" y="850" width="110" height="30" as="geometry" />
        </mxCell>
      </root>
    </mxGraphModel>
  </diagram>
</mxfile>
